<?xml version="1.0" standalone="no"?>
<!DOCTYPE svg PUBLIC "-//W3C//DTD SVG 20010904//EN"
 "http://www.w3.org/TR/2001/REC-SVG-20010904/DTD/svg10.dtd">
<svg version="1.0" xmlns="http://www.w3.org/2000/svg"
 width="3597.000000pt" height="1785.000000pt" viewBox="0 0 3597.000000 1785.000000"
 preserveAspectRatio="xMidYMid meet">

<g transform="translate(0.000000,1785.000000) scale(0.100000,-0.100000)"
fill="#000000" stroke="none">
<path d="M6405 11198 c-52 -138 -1935 -5323 -1935 -5330 0 -4 104 -7 236 -6
l236 3 969 2665 c533 1466 969 2668 969 2673 0 4 -106 7 -235 7 -179 0 -237
-3 -240 -12z"/>
<path d="M15600 8410 l0 -1720 199 0 199 0 5 628 c5 666 8 708 57 852 68 201
199 354 385 448 120 60 408 96 595 73 310 -38 484 -159 567 -396 l28 -80 3
-762 3 -763 205 0 205 0 -4 808 c-3 739 -4 812 -21 866 -110 368 -489 596
-1016 613 -185 6 -298 -7 -455 -52 -195 -56 -386 -184 -501 -335 -21 -27 -41
-47 -45 -45 -4 3 -7 103 -7 222 0 120 -1 476 -1 791 l-1 572 -200 0 -200 0 0
-1720z"/>
<path d="M13365 9988 c-428 -22 -769 -163 -1036 -428 -308 -306 -453 -707
-453 -1255 0 -360 53 -613 184 -870 89 -177 197 -315 340 -437 101 -85 148
-117 271 -182 477 -252 1226 -264 1700 -26 185 94 379 253 503 415 66 85 120
165 114 169 -16 13 -359 167 -366 164 -5 -1 -44 -50 -87 -106 -43 -57 -116
-141 -162 -188 -203 -201 -398 -280 -754 -306 -146 -10 -180 -10 -288 6 -193
27 -320 73 -472 171 -237 153 -411 439 -478 788 -74 383 -35 840 97 1132 169
373 448 581 852 636 119 16 397 5 524 -20 309 -63 516 -192 712 -444 l35 -45
132 60 c73 33 151 69 175 79 23 10 42 22 42 26 0 16 -93 131 -165 205 -326
333 -808 488 -1420 456z"/>
<path d="M25470 8310 l0 -1620 483 0 c796 1 1064 21 1368 106 316 87 571 224
772 414 323 306 463 697 435 1217 -24 465 -239 864 -603 1122 -183 129 -469
248 -730 305 -278 60 -526 75 -1242 76 l-483 0 0 -1620z m1184 1290 c428 -28
721 -118 966 -298 300 -221 440 -538 440 -994 -1 -402 -103 -682 -326 -899
-160 -154 -393 -276 -644 -335 -218 -51 -276 -56 -737 -61 l-443 -5 0 1301 0
1301 293 0 c160 0 363 -5 451 -10z"/>
<path d="M21235 9841 c-60 -16 -134 -61 -169 -104 -104 -127 -34 -304 147
-367 155 -55 339 3 414 130 71 118 22 242 -126 316 -45 22 -71 28 -145 30 -50
2 -104 0 -121 -5z"/>
<path d="M1880 8889 c-767 -430 -1398 -784 -1402 -787 -6 -6 2778 -1572 2794
-1572 11 0 201 354 192 358 -50 20 -2209 1210 -2209 1217 0 6 496 276 1102
600 606 325 1105 593 1108 596 4 5 -169 340 -189 366 -1 1 -629 -349 -1396
-778z"/>
<path d="M7968 9487 c-54 -100 -94 -185 -90 -188 4 -4 502 -271 1107 -594 605
-323 1104 -591 1108 -595 5 -4 -493 -281 -1105 -615 -612 -334 -1114 -609
-1116 -611 -2 -1 40 -82 94 -178 75 -134 102 -175 114 -171 51 20 2788 1561
2782 1567 -5 5 -2794 1569 -2796 1568 -1 0 -45 -82 -98 -183z"/>
<path d="M20007 8961 c-178 -39 -278 -81 -425 -178 -96 -64 -197 -158 -273
-258 l-54 -69 -3 227 -2 227 -200 0 -200 0 0 -1110 0 -1110 199 0 200 0 4 608
c4 665 4 668 68 832 42 111 100 193 213 305 85 84 117 108 201 152 241 124
524 156 763 87 l22 -6 0 140 0 141 -37 12 c-21 6 -117 13 -213 15 -145 3 -190
1 -263 -15z"/>
<path d="M23315 8974 c-245 -35 -369 -70 -509 -142 -99 -51 -196 -134 -245
-211 -93 -144 -105 -346 -30 -499 121 -248 435 -381 999 -422 478 -35 675
-105 761 -270 21 -39 24 -59 24 -145 0 -91 -2 -104 -27 -147 -76 -128 -268
-206 -564 -228 -447 -33 -802 78 -974 306 l-46 60 -174 -67 c-96 -37 -176 -71
-177 -76 -7 -20 135 -170 220 -234 228 -171 526 -263 897 -276 574 -19 1060
170 1203 468 111 229 47 476 -161 629 -188 138 -455 212 -887 245 -133 10
-305 35 -395 57 -279 67 -412 220 -356 410 46 161 239 250 571 265 394 17 678
-82 831 -289 23 -32 44 -63 46 -69 4 -12 358 121 358 135 0 20 -93 136 -156
195 -152 143 -337 231 -592 282 -88 18 -149 22 -347 24 -132 2 -253 1 -270 -1z"/>
<path d="M30220 8964 c-559 -78 -976 -411 -1097 -874 -31 -118 -42 -334 -24
-461 61 -424 387 -778 851 -928 176 -56 344 -81 551 -81 402 0 746 89 1012
263 98 63 211 159 256 215 l31 40 -62 35 c-35 19 -105 56 -156 82 l-93 48 -72
-73 c-149 -150 -328 -245 -547 -290 -226 -46 -510 -46 -700 1 -361 89 -625
382 -675 747 l-7 52 1171 0 1171 0 6 26 c10 40 -4 250 -21 324 -102 433 -465
748 -990 860 -134 29 -451 36 -605 14z m446 -275 c386 -43 627 -223 733 -549
12 -36 24 -82 28 -102 l6 -38 -957 0 c-785 0 -956 2 -956 13 0 27 33 124 62
182 66 131 185 265 310 348 191 126 474 180 774 146z"/>
<path d="M21140 7800 l0 -1110 200 0 200 0 0 1110 0 1110 -200 0 -200 0 0
-1110z"/>
<path d="M32136 8793 c30 -65 260 -563 512 -1108 l458 -990 224 0 225 0 512
1100 c282 605 512 1103 513 1108 0 4 -91 6 -202 5 l-203 -3 -410 -930 c-225
-511 -414 -929 -420 -928 -5 0 -197 419 -426 929 l-416 929 -211 3 -211 2 55
-117z"/>
</g>
</svg>
